HIERARCHY
ROOT Hips
{
    OFFSET   0.000000   0.000000   0.000000
    CHANNELS 6 Xposition Yposition Zposition Zrotation Xrotation Yrotation
    JOINT Chest
    {
        OFFSET   0.000000   8.007240   0.000000
        CHANNELS 3 Zrotation Xrotation Yrotation
        JOINT Chest2
        {
            OFFSET   0.000000  22.077100   0.000000
            CHANNELS 3 Zrotation Xrotation Yrotation
            JOINT Neck
            {
                OFFSET   0.000000  23.254800   0.000000
                CHANNELS 3 Zrotation Xrotation Yrotation
                JOINT Head
                {
                    OFFSET   0.000000  14.370000   1.956600
                    CHANNELS 3 Zrotation Xrotation Yrotation
                    End Site
                    {
                        OFFSET   0.000000  19.566000   0.000000
                    }
                }
            }
            JOINT LeftCollar
            {
                OFFSET   3.911900  19.017000  -0.467064
                CHANNELS 3 Zrotation Xrotation Yrotation
                JOINT LeftShoulder
                {
                    OFFSET  10.383700   0.000000   0.000000
                    CHANNELS 3 Zrotation Xrotation Yrotation
                    JOINT LeftElbow
                    {
                        OFFSET  26.662100   0.001476   0.000517
                        CHANNELS 3 Zrotation Xrotation Yrotation
                        JOINT LeftWrist
                        {
                            OFFSET  28.869000  -0.000025  -0.000106
                            CHANNELS 3 Zrotation Xrotation Yrotation
                            JOINT LeftFinger0
                            {
                                OFFSET   2.044660  -2.323460   3.252850
                                CHANNELS 3 Zrotation Xrotation Yrotation
                                JOINT LeftFinger01
                                {
                                    OFFSET   3.088130   0.000000   0.000000
                                    CHANNELS 3 Zrotation Xrotation Yrotation
                                    JOINT LeftFinger02
                                    {
                                        OFFSET   2.639460   0.000000   0.000000
                                        CHANNELS 3 Zrotation Xrotation Yrotation
                                        End Site
                                        {
                                            OFFSET   2.582190   0.000000   0.000000
                                        }
                                    }
                                }
                            }
                            JOINT LeftFinger1
                            {
                                OFFSET   8.364480   0.000000   3.252850
                                CHANNELS 3 Zrotation Xrotation Yrotation
                                JOINT LeftFinger11
                                {
                                    OFFSET   4.646930   0.000000   0.000000
                                    CHANNELS 3 Zrotation Xrotation Yrotation
                                    JOINT LeftFinger12
                                    {
                                        OFFSET   2.323460   0.000000   0.000000
                                        CHANNELS 3 Zrotation Xrotation Yrotation
                                        End Site
                                        {
                                            OFFSET   2.273050   0.000000   0.000000
                                        }
                                    }
                                }
                            }
                            JOINT LeftFinger2
                            {
                                OFFSET   8.364490   0.000015   1.078090
                                CHANNELS 3 Zrotation Xrotation Yrotation
                                JOINT LeftFinger21
                                {
                                    OFFSET   5.111620   0.000000   0.000000
                                    CHANNELS 3 Zrotation Xrotation Yrotation
                                    JOINT LeftFinger22
                                    {
                                        OFFSET   2.788160   0.000016   0.000000
                                        CHANNELS 3 Zrotation Xrotation Yrotation
                                        End Site
                                        {
                                            OFFSET   2.727660   0.000000   0.000000
                                        }
                                    }
                                }
                            }
                            JOINT LeftFinger3
                            {
                                OFFSET   7.899780   0.000017  -1.078090
                                CHANNELS 3 Zrotation Xrotation Yrotation
                                JOINT LeftFinger31
                                {
                                    OFFSET   4.646930   0.000000   0.000000
                                    CHANNELS 3 Zrotation Xrotation Yrotation
                                    JOINT LeftFinger32
                                    {
                                        OFFSET   2.323470   0.000000   0.000000
                                        CHANNELS 3 Zrotation Xrotation Yrotation
                                        End Site
                                        {
                                            OFFSET   2.273050   0.000000   0.000000
                                        }
                                    }
                                }
                            }
                            JOINT LeftFinger4
                            {
                                OFFSET   7.435090   0.000000  -3.252850
                                CHANNELS 3 Zrotation Xrotation Yrotation
                                JOINT LeftFinger41
                                {
                                    OFFSET   3.717550   0.000000   0.000000
                                    CHANNELS 3 Zrotation Xrotation Yrotation
                                    JOINT LeftFinger42
                                    {
                                        OFFSET   1.858770   0.000000   0.000000
                                        CHANNELS 3 Zrotation Xrotation Yrotation
                                        End Site
                                        {
                                            OFFSET   1.818440   0.000000   0.000000
                                        }
                                    }
                                }
                            }
                        }
                    }
                }
            }
            JOINT RightCollar
            {
                OFFSET  -3.911900  19.017000  -0.467063
                CHANNELS 3 Zrotation Xrotation Yrotation
                JOINT RightShoulder
                {
                    OFFSET -10.383700   0.000019   0.000000
                    CHANNELS 3 Zrotation Xrotation Yrotation
                    JOINT RightElbow
                    {
                        OFFSET -26.662100   0.001175   0.000102
                        CHANNELS 3 Zrotation Xrotation Yrotation
                        JOINT RightWrist
                        {
                            OFFSET -28.869000   0.000016  -0.000079
                            CHANNELS 3 Zrotation Xrotation Yrotation
                            JOINT RightFinger0
                            {
                                OFFSET  -2.044660  -2.323490   3.252850
                                CHANNELS 3 Zrotation Xrotation Yrotation
                                JOINT RightFinger01
                                {
                                    OFFSET  -3.088140   0.000000   0.000000
                                    CHANNELS 3 Zrotation Xrotation Yrotation
                                    JOINT RightFinger02
                                    {
                                        OFFSET  -2.639460   0.000000   0.000000
                                        CHANNELS 3 Zrotation Xrotation Yrotation
                                        End Site
                                        {
                                            OFFSET  -2.582190   0.000000   0.000000
                                        }
                                    }
                                }
                            }
                            JOINT RightFinger1
                            {
                                OFFSET  -8.364480   0.000000   3.252850
                                CHANNELS 3 Zrotation Xrotation Yrotation
                                JOINT RightFinger11
                                {
                                    OFFSET  -4.646930   0.000000   0.000000
                                    CHANNELS 3 Zrotation Xrotation Yrotation
                                    JOINT RightFinger12
                                    {
                                        OFFSET  -2.323470   0.000000   0.000000
                                        CHANNELS 3 Zrotation Xrotation Yrotation
                                        End Site
                                        {
                                            OFFSET  -2.273050   0.000000   0.000000
                                        }
                                    }
                                }
                            }
                            JOINT RightFinger2
                            {
                                OFFSET  -8.364480   0.000000   1.078090
                                CHANNELS 3 Zrotation Xrotation Yrotation
                                JOINT RightFinger21
                                {
                                    OFFSET  -5.111620   0.000000   0.000000
                                    CHANNELS 3 Zrotation Xrotation Yrotation
                                    JOINT RightFinger22
                                    {
                                        OFFSET  -2.788160   0.000000   0.000000
                                        CHANNELS 3 Zrotation Xrotation Yrotation
                                        End Site
                                        {
                                            OFFSET  -2.727660   0.000000   0.000000
                                        }
                                    }
                                }
                            }
                            JOINT RightFinger3
                            {
                                OFFSET  -7.899780   0.000000  -1.078090
                                CHANNELS 3 Zrotation Xrotation Yrotation
                                JOINT RightFinger31
                                {
                                    OFFSET  -4.646930   0.000000   0.000000
                                    CHANNELS 3 Zrotation Xrotation Yrotation
                                    JOINT RightFinger32
                                    {
                                        OFFSET  -2.323470   0.000000   0.000000
                                        CHANNELS 3 Zrotation Xrotation Yrotation
                                        End Site
                                        {
                                            OFFSET  -2.273050   0.000000   0.000000
                                        }
                                    }
                                }
                            }
                            JOINT RightFinger4
                            {
                                OFFSET  -7.435090   0.000000  -3.252850
                                CHANNELS 3 Zrotation Xrotation Yrotation
                                JOINT RightFinger41
                                {
                                    OFFSET  -3.717550   0.000000   0.000000
                                    CHANNELS 3 Zrotation Xrotation Yrotation
                                    JOINT RightFinger42
                                    {
                                        OFFSET  -1.858770   0.000000   0.000000
                                        CHANNELS 3 Zrotation Xrotation Yrotation
                                        End Site
                                        {
                                            OFFSET  -1.818440   0.000000   0.000000
                                        }
                                    }
                                }
                            }
                        }
                    }
                }
            }
        }
    }
    JOINT LeftHip
    {
        OFFSET   9.783040   0.000000   0.000000
        CHANNELS 3 Zrotation Xrotation Yrotation
        JOINT LeftKnee
        {
            OFFSET   0.000032 -41.789100  -0.002222
            CHANNELS 3 Zrotation Xrotation Yrotation
            JOINT LeftAnkle
            {
                OFFSET   0.000087 -41.133200  -0.000135
                CHANNELS 3 Zrotation Xrotation Yrotation
                JOINT LeftToe
                {
                    OFFSET   0.000000  -6.358960  14.674500
                    CHANNELS 3 Zrotation Xrotation Yrotation
                    End Site
                    {
                        OFFSET   0.000000   0.000000   3.913200
                    }
                }
            }
        }
    }
    JOINT RightHip
    {
        OFFSET  -9.783040   0.000000   0.000000
        CHANNELS 3 Zrotation Xrotation Yrotation
        JOINT RightKnee
        {
            OFFSET   0.000047 -41.789100  -0.000896
            CHANNELS 3 Zrotation Xrotation Yrotation
            JOINT RightAnkle
            {
                OFFSET  -0.000117 -41.133300  -0.000248
                CHANNELS 3 Zrotation Xrotation Yrotation
                JOINT RightToe
                {
                    OFFSET   0.000000  -6.358970  14.674500
                    CHANNELS 3 Zrotation Xrotation Yrotation
                    End Site
                    {
                        OFFSET   0.000000   0.000000   3.913200
                    }
                }
            }
        }
    }
}
MOTION
Frames: 4
Frame Time:   0.016667
  1.563640  89.391800  -1.085680  -0.537945  -5.127500   5.849740   0.752321   3.624080  -0.303004   1.528480   7.243810  -0.655794  -1.690250   0.835078   0.033396  -2.778400   1.689270   3.801320  -3.966630   1.752460   9.601220 -80.105500   9.132910  -2.469610   0.297789   3.817850 -14.150000  10.465400  -3.517390  -0.947860  39.843400  34.844900 -52.015500 -34.113800   0.002676   0.002042 -12.059700   0.008638   0.002832 -36.882900  -0.392468   0.522779 -30.178400  -0.004420   0.003809 -21.136400  -0.003435   0.003652 -33.460200  -3.650230   5.490240 -50.451400   0.005969  -0.011856 -33.601800   0.004127   0.000359 -28.802800  -4.529490   8.173660 -43.703100   0.000507  -0.012241 -29.106700   0.001560  -0.000625 -36.938600  -7.492090   9.842470 -56.359100   0.002273  -0.001983 -37.534300   0.003913   0.005592   6.327360   4.374930   5.741240  71.658700  -7.624990  -0.081381   1.945080  -0.792496  24.348300 -20.431400  -0.403938   4.157760 -44.585400  35.170600  71.474200  23.346300   0.004703  -0.001992   6.673150   0.001369  -0.005411  34.479200   2.385590   3.475140  28.269500   0.002767  -0.002611  19.788700   0.002392   0.000511  28.161000  -0.259959  -0.484180  33.108900   0.001535   0.004295  22.050600  -0.001730   0.006336  28.601500  -0.803723  -1.473270  37.543200   0.003265  -0.007720  25.003800  -0.001891  -0.005567  35.284500  -0.972028  -1.368860  52.942900   0.004055  -0.006875  35.260000  -0.001191  -0.008052   1.927060   5.973900  -2.346040  -0.461154   0.121686   6.767890  -1.355930  -1.690340  -0.106714  -0.000000   0.000000   0.000000  -1.891200   3.532140  -5.577770  -1.879370   8.653040 -13.847300   3.473650  -5.366390  -1.652710  -0.000000   0.000000  -0.000000
  1.566330  89.392000  -1.084620  -0.536481  -5.151730   5.836100   0.756031   3.644510  -0.288427   1.535160   7.284840  -0.627234  -1.668850   0.863652   0.033367  -2.743750   1.747120   3.781450  -3.970290   1.752700   9.560700 -80.115600   9.148610  -2.491870   0.300025   3.826810 -14.156900  10.464000  -3.520130  -0.948017  39.851200  34.863200 -52.041000 -34.118600   0.002684   0.002041 -12.060900   0.008633   0.002831 -36.892100  -0.394366   0.525246 -30.186600  -0.004416   0.003806 -21.136400  -0.003432   0.003650 -33.460100  -3.650230   5.490140 -50.451400   0.005972  -0.011856 -33.601700   0.004127   0.000356 -28.806100  -4.533690   8.180030 -43.703100   0.000505  -0.012242 -29.106600   0.001562  -0.000630 -36.936900  -7.497550   9.848180 -56.366300   0.002274  -0.001989 -37.534300   0.003916   0.005594   6.324880   4.300440   5.666840  71.678800  -7.655670  -0.349612   1.890830  -0.407516  25.498400 -20.486900  -0.518018   4.320160 -44.639600  35.019900  71.471400  23.055600   0.004717  -0.001942   6.527770   0.001370  -0.005396  34.655300   2.396740   3.472170  28.413900   0.002769  -0.002611  19.889800   0.002391   0.000524  28.189800  -0.207493  -0.385601  33.323700   0.001523   0.004293  22.193700  -0.001768   0.006338  28.619900  -0.717890  -1.315020  37.787500   0.003265  -0.007724  25.166500  -0.001892  -0.005573  35.383700  -0.870449  -1.220500  53.088100   0.004055  -0.006880  35.356700  -0.001195  -0.008047   1.929080   6.027310  -2.342660  -0.460756   0.064240   6.781030  -1.353390  -1.663100  -0.109039  -0.000000   0.000000   0.000000  -1.893400   3.556470  -5.577840  -1.877570   8.657650 -13.852500   3.476230  -5.372210  -1.623480  -0.000000   0.000000  -0.000000
  1.572290  89.392200  -1.082420  -0.534707  -5.198160   5.801340   0.762371   3.680050  -0.273854   1.547200   7.356060  -0.598710  -1.629420   0.917890   0.033315  -2.678860   1.857040   3.761690  -3.979770   1.752970   9.514140 -80.128700   9.164220  -2.528350   0.303151   3.851290 -14.164100  10.460300  -3.522880  -0.948238  39.864400  34.893800 -52.081200 -34.126700   0.002698   0.002035 -12.063400   0.008624   0.002829 -36.903000  -0.399157   0.531545 -30.194900  -0.004407   0.003798 -21.136400  -0.003424   0.003644 -33.460000  -3.650230   5.489950 -50.451300   0.005981  -0.011857 -33.601600   0.004129   0.000347 -28.810000  -4.541350   8.192340 -43.703100   0.000501  -0.012247 -29.106400   0.001565  -0.000641 -36.934000  -7.506610   9.858510 -56.373500   0.002279  -0.002004 -37.534400   0.003923   0.005600   6.325100   4.196440   5.592260  71.675000  -7.685900  -0.794318   1.678160   0.267944  27.592600 -20.517700  -0.915374   4.589490 -44.742200  34.765900  71.466500  22.550800   0.004743  -0.001875   6.275380   0.001376  -0.005381  34.944000   2.407940   3.451280  28.651000   0.002772  -0.002605  20.055700   0.002389   0.000554  28.239100  -0.137213  -0.253189  33.705900   0.001490   0.004291  22.448200  -0.001807   0.006339  28.648200  -0.599438  -1.096490  38.198000   0.003266  -0.007739  25.439900  -0.001896  -0.005585  35.555500  -0.730333  -1.015410  53.342300   0.004051  -0.006891  35.525900  -0.001201  -0.008039   1.931660   6.110360  -2.332880  -0.460333   0.006796   6.804190  -1.349720  -1.635870  -0.111364   0.000000   0.000000   0.000000  -1.894500   3.597950  -5.577540  -1.874510   8.671020 -13.858100   3.481160  -5.381020  -1.569040  -0.000000   0.000000  -0.000000
  1.579460  89.392200  -1.079880  -0.536187  -5.245170   5.751750   0.766816   3.711150  -0.280202   1.556760   7.418150  -0.612026  -1.589470   0.972595   0.033251  -2.613170   1.967990   3.819970  -3.994410   1.750720   9.507080 -80.128900   9.136130  -2.557600   0.301968   3.891700 -14.151600  10.452500  -3.507240  -0.948326  39.875200  34.917600 -52.106800 -34.132500   0.002706   0.002026 -12.066100   0.008617   0.002825 -36.904600  -0.406739   0.541619 -30.195000  -0.004398   0.003786 -21.136600  -0.003410   0.003634 -33.459900  -3.650230   5.489690 -50.451200   0.005994  -0.011857 -33.601400   0.004132   0.000331 -28.809400  -4.549170   8.206410 -43.702100   0.000497  -0.012257 -29.106200   0.001572  -0.000660 -36.929400  -7.513990   9.868910 -56.371000   0.002287  -0.002029 -37.534400   0.003933   0.005607   6.335030   4.153550   5.592320  71.603000  -7.611200  -1.170320   1.313280   0.905303  29.652200 -20.272400  -1.691500   4.801690 -44.838100  34.544300  71.463000  22.101700   0.004766  -0.001860   6.050840   0.001390  -0.005382  35.170500   2.366540   3.361310  28.834800   0.002775  -0.002591  20.184300   0.002389   0.000594  28.284000  -0.116433  -0.213715  34.080300   0.001434   0.004286  22.697500  -0.001798   0.005377  28.668400  -0.554881  -1.013570  38.548800   0.003274  -0.007769  25.673500  -0.001903  -0.005600  35.721300  -0.677858  -0.936798  53.590700   0.004045  -0.006906  35.691400  -0.001210  -0.008035   1.931700   6.154940  -2.315770  -0.461802   0.026946   6.820770  -1.348520  -1.650280  -0.100283  -0.000000   0.000000  -0.000000  -1.892070   3.630850  -5.571290  -1.878380   8.693030 -13.858200   3.489640  -5.386070  -1.513780   0.000000   0.000000   0.000000
